<svg width="2805" height="2362" viewBox="0 0 2805 2362" fill="none" xmlns="http://www.w3.org/2000/svg">
<g id="Stands">
<rect width="2804.23" height="2361.61" fill="black" fill-opacity="0"/>
<rect id="401" x="2755.79" y="2116.44" width="39" height="29" transform="rotate(-26 2755.79 2116.44)" fill="#FFF500" fill-opacity="0.75" stroke="black"/>
<rect id="402" x="2753.79" y="2080.44" width="39" height="28" transform="rotate(-26 2753.79 2080.44)" fill="#FFF500" fill-opacity="0.75" stroke="black"/>
<rect id="403" x="2731.79" y="2038.44" width="39" height="28" transform="rotate(-26 2731.79 2038.44)" fill="#FFF500" fill-opacity="0.75" stroke="black"/>
<rect id="404" x="2670.79" y="1916.44" width="39" height="29" transform="rotate(-26 2670.79 1916.44)" fill="#FFF500" fill-opacity="0.75" stroke="black"/>
<rect id="405" x="2649.79" y="1877.44" width="39" height="29" transform="rotate(-26 2649.79 1877.44)" fill="#FFF500" fill-opacity="0.75" stroke="black"/>
<rect id="406" x="2632.79" y="1838.44" width="39" height="29" transform="rotate(-26 2632.79 1838.44)" fill="#FFF500" fill-opacity="0.75" stroke="black"/>
<rect id="407" x="2617.79" y="1805.44" width="39" height="29" transform="rotate(-26 2617.79 1805.44)" fill="#FFF500" fill-opacity="0.75" stroke="black"/>
<rect id="408" x="2600.79" y="1773.44" width="39" height="29" transform="rotate(-26 2600.79 1773.44)" fill="#FFF500" fill-opacity="0.75" stroke="black"/>
<rect id="413" x="2595.5" y="1707.49" width="24" height="24" fill="#FFF500" fill-opacity="0.75" stroke="black"/>
<rect id="412" x="2612.5" y="1684.49" width="24" height="24" fill="#FFF500" fill-opacity="0.75" stroke="black"/>
<rect id="411" x="2645.5" y="1733.49" width="24" height="24" fill="#FFF500" fill-opacity="0.75" stroke="black"/>
<rect id="302" x="2086.59" y="2087.63" width="39" height="29" transform="rotate(-26 2086.59 2087.63)" fill="#FFF500" fill-opacity="0.75" stroke="black"/>
<rect id="311" x="2168.91" y="2128.49" width="14" height="19" transform="rotate(26 2168.91 2128.49)" fill="#FFF500" fill-opacity="0.75" stroke="black"/>
<rect id="321" x="2163.59" y="2024.63" width="14" height="19" transform="rotate(-26 2163.59 2024.63)" fill="#FFF500" fill-opacity="0.75" stroke="black"/>
<rect id="322" x="2178.59" y="2017.63" width="14" height="19" transform="rotate(-26 2178.59 2017.63)" fill="#FFF500" fill-opacity="0.75" stroke="black"/>
<rect id="323" x="2193.59" y="2009.63" width="14" height="19" transform="rotate(-26 2193.59 2009.63)" fill="#FFF500" fill-opacity="0.75" stroke="black"/>
<rect id="322B" x="2189.59" y="2037.63" width="14" height="19" transform="rotate(-26 2189.59 2037.63)" fill="#FFF500" fill-opacity="0.75" stroke="black"/>
<rect id="221" x="2101.59" y="1901.63" width="14" height="19" transform="rotate(-26 2101.59 1901.63)" fill="#FFF500" fill-opacity="0.75" stroke="black"/>
<rect id="222" x="2115.59" y="1891.63" width="14" height="19" transform="rotate(-26 2115.59 1891.63)" fill="#FFF500" fill-opacity="0.75" stroke="black"/>
<rect id="225" x="2068.55" y="1750.98" width="14" height="19" transform="rotate(-3 2068.55 1750.98)" fill="#FFF500" fill-opacity="0.75" stroke="black"/>
<rect id="224" x="2077.3" y="1794.94" width="14" height="19" transform="rotate(-48 2077.3 1794.94)" fill="#FFF500" fill-opacity="0.75" stroke="black"/>
<rect id="223" x="2133.59" y="1887.63" width="14" height="19" transform="rotate(-26 2133.59 1887.63)" fill="#FFF500" fill-opacity="0.75" stroke="black"/>
<rect id="222B" x="2130.59" y="1922.63" width="14" height="19" transform="rotate(-26 2130.59 1922.63)" fill="#FFF500" fill-opacity="0.75" stroke="black"/>
<rect id="312" x="2187.91" y="2136.49" width="14" height="19" transform="rotate(26 2187.91 2136.49)" fill="#FFF500" fill-opacity="0.75" stroke="black"/>
<rect id="313" x="2204.81" y="2151.43" width="14" height="19" transform="rotate(45 2204.81 2151.43)" fill="#FFF500" fill-opacity="0.75" stroke="black"/>
<rect id="316" x="2240.81" y="2151.43" width="14" height="19" transform="rotate(45 2240.81 2151.43)" fill="#FFF500" fill-opacity="0.75" stroke="black"/>
<rect id="351" x="2268.23" y="2152.05" width="14" height="19" transform="rotate(68 2268.23 2152.05)" fill="#FFF500" fill-opacity="0.75" stroke="black"/>
<rect id="314" x="2226.23" y="2115.05" width="14" height="19" transform="rotate(68 2226.23 2115.05)" fill="#FFF500" fill-opacity="0.75" stroke="black"/>
<rect id="319" x="2293.32" y="2160.31" width="14" height="19" transform="rotate(97 2293.32 2160.31)" fill="#FFF500" fill-opacity="0.75" stroke="black"/>
<rect id="305" x="2241.54" y="2138.1" width="14" height="19" transform="rotate(90 2241.54 2138.1)" fill="#FFF500" fill-opacity="0.75" stroke="black"/>
<rect id="305_2" x="2230.73" y="2134.37" width="14" height="19" transform="rotate(30 2230.73 2134.37)" fill="#FFF500" fill-opacity="0.75" stroke="black"/>
<rect id="318" x="2284.54" y="2137.1" width="14" height="19" transform="rotate(90 2284.54 2137.1)" fill="#FFF500" fill-opacity="0.75" stroke="black"/>
<rect id="317" x="2269.32" y="2113.31" width="14" height="19" transform="rotate(97 2269.32 2113.31)" fill="#FFF500" fill-opacity="0.75" stroke="black"/>
<rect id="303" x="2169.04" y="2140.6" width="14" height="19" fill="#FFF500" fill-opacity="0.75" stroke="black"/>
<rect id="304" x="2197.04" y="2137.6" width="14" height="19" fill="#FFF500" fill-opacity="0.75" stroke="black"/>
<rect id="306" x="2248.04" y="2119.6" width="14" height="19" fill="#FFF500" fill-opacity="0.75" stroke="black"/>
<rect id="301" x="2069.59" y="2054.63" width="39" height="29" transform="rotate(-26 2069.59 2054.63)" fill="#FFF500" fill-opacity="0.75" stroke="black"/>
<rect id="206" x="2038.59" y="1993.63" width="39" height="29" transform="rotate(-26 2038.59 1993.63)" fill="#FFF500" fill-opacity="0.75" stroke="black"/>
<rect id="205" x="2019.59" y="1955.63" width="39" height="29" transform="rotate(-26 2019.59 1955.63)" fill="#FFF500" fill-opacity="0.75" stroke="black"/>
<rect id="204" x="1996.59" y="1910.63" width="39" height="29" transform="rotate(-26 1996.59 1910.63)" fill="#FFF500" fill-opacity="0.75" stroke="black"/>
<rect id="203" x="1973.59" y="1864.63" width="39" height="29" transform="rotate(-26 1973.59 1864.63)" fill="#FFF500" fill-opacity="0.75" stroke="black"/>
<rect id="202" x="1950.59" y="1819.63" width="39" height="29" transform="rotate(-26 1950.59 1819.63)" fill="#FFF500" fill-opacity="0.75" stroke="black"/>
<rect id="201" x="1930.59" y="1769.63" width="39" height="29" transform="rotate(-26 1930.59 1769.63)" fill="#FFF500" fill-opacity="0.75" stroke="black"/>
<rect id="6" x="1956.59" y="1670.63" width="39" height="29" transform="rotate(-26 1956.59 1670.63)" fill="#FFF500" fill-opacity="0.75" stroke="black"/>
<rect id="7" x="1941.59" y="1643.63" width="39" height="29" transform="rotate(-26 1941.59 1643.63)" fill="#FFF500" fill-opacity="0.75" stroke="black"/>
<rect id="8" x="1926.59" y="1613.63" width="39" height="29" transform="rotate(-26 1926.59 1613.63)" fill="#FFF500" fill-opacity="0.75" stroke="black"/>
<rect id="9" x="1909.59" y="1578.63" width="39" height="29" transform="rotate(-26 1909.59 1578.63)" fill="#FFF500" fill-opacity="0.75" stroke="black"/>
<rect id="10" x="1891.59" y="1543.63" width="39" height="29" transform="rotate(-26 1891.59 1543.63)" fill="#FFF500" fill-opacity="0.75" stroke="black"/>
<rect id="11" x="1873.59" y="1505.63" width="39" height="29" transform="rotate(-26 1873.59 1505.63)" fill="#FFF500" fill-opacity="0.75" stroke="black"/>
<rect id="12" x="1843.59" y="1468.63" width="49" height="29" transform="rotate(-26 1843.59 1468.63)" fill="#FFF500" fill-opacity="0.75" stroke="black"/>
<rect id="13" x="1826.59" y="1433.63" width="49" height="29" transform="rotate(-26 1826.59 1433.63)" fill="#FFF500" fill-opacity="0.75" stroke="black"/>
<rect id="14" x="1807.59" y="1397.63" width="49" height="29" transform="rotate(-26 1807.59 1397.63)" fill="#FFF500" fill-opacity="0.75" stroke="black"/>
<rect id="15" x="1790.59" y="1361.63" width="49" height="29" transform="rotate(-26 1790.59 1361.63)" fill="#FFF500" fill-opacity="0.75" stroke="black"/>
<rect id="16" x="1770.59" y="1327.63" width="49" height="29" transform="rotate(-26 1770.59 1327.63)" fill="#FFF500" fill-opacity="0.75" stroke="black"/>
<rect id="17" x="1752.59" y="1291.63" width="49" height="29" transform="rotate(-26 1752.59 1291.63)" fill="#FFF500" fill-opacity="0.75" stroke="black"/>
<rect id="18" x="1734.59" y="1255.63" width="49" height="29" transform="rotate(-26 1734.59 1255.63)" fill="#FFF500" fill-opacity="0.75" stroke="black"/>
<rect id="19" x="1716.59" y="1219.63" width="49" height="29" transform="rotate(-26 1716.59 1219.63)" fill="#FFF500" fill-opacity="0.75" stroke="black"/>
<rect id="20" x="1697.59" y="1182.63" width="49" height="29" transform="rotate(-26 1697.59 1182.63)" fill="#FFF500" fill-opacity="0.75" stroke="black"/>
<rect id="21" x="1679.59" y="1146.63" width="49" height="29" transform="rotate(-26 1679.59 1146.63)" fill="#FFF500" fill-opacity="0.75" stroke="black"/>
<rect id="22" x="1659.59" y="1104.63" width="49" height="29" transform="rotate(-26 1659.59 1104.63)" fill="#FFF500" fill-opacity="0.75" stroke="black"/>
<rect id="23" x="1651.03" y="1086.67" width="49" height="29" transform="rotate(-55 1651.03 1086.67)" fill="#FFF500" fill-opacity="0.75" stroke="black"/>
<rect id="24" x="1629.32" y="1069.53" width="49" height="29" transform="rotate(-77 1629.32 1069.53)" fill="#FFF500" fill-opacity="0.75" stroke="black"/>
<rect id="25" x="1586.65" y="1110.59" width="49" height="29" transform="rotate(-95 1586.65 1110.59)" fill="#FFF500" fill-opacity="0.75" stroke="black"/>
<rect id="26" x="1566.34" y="1083.01" width="49" height="29" transform="rotate(48 1566.34 1083.01)" fill="#FFF500" fill-opacity="0.75" stroke="black"/>
<rect id="121" x="1588.34" y="934.012" width="39" height="29" transform="rotate(48 1588.34 934.012)" fill="#FFF500" fill-opacity="0.75" stroke="black"/>
<rect id="122" x="1548.34" y="965.012" width="39" height="29" transform="rotate(48 1548.34 965.012)" fill="#FFF500" fill-opacity="0.75" stroke="black"/>
<rect id="122D" x="1537.34" y="975.012" width="39" height="29" transform="rotate(48 1537.34 975.012)" fill="#FFF500" fill-opacity="0.75" stroke="black"/>
<rect id="123" x="1517.34" y="995.012" width="39" height="29" transform="rotate(48 1517.34 995.012)" fill="#FFF500" fill-opacity="0.75" stroke="black"/>
<rect id="124D" x="1500.34" y="1009.01" width="39" height="29" transform="rotate(48 1500.34 1009.01)" fill="#FFF500" fill-opacity="0.75" stroke="black"/>
<rect id="124" x="1490.34" y="1019.01" width="39" height="29" transform="rotate(48 1490.34 1019.01)" fill="#FFF500" fill-opacity="0.75" stroke="black"/>
<rect id="125" x="1456.34" y="1050.01" width="39" height="29" transform="rotate(48 1456.34 1050.01)" fill="#FFF500" fill-opacity="0.75" stroke="black"/>
<rect id="126" x="1421.34" y="1082.01" width="39" height="29" transform="rotate(48 1421.34 1082.01)" fill="#FFF500" fill-opacity="0.75" stroke="black"/>
<rect id="127" x="1384.34" y="1115.01" width="39" height="29" transform="rotate(48 1384.34 1115.01)" fill="#FFF500" fill-opacity="0.75" stroke="black"/>
<rect id="27" x="1536.34" y="1115.01" width="49" height="29" transform="rotate(48 1536.34 1115.01)" fill="#FFF500" fill-opacity="0.75" stroke="black"/>
<rect id="28" x="1499.34" y="1149.01" width="49" height="29" transform="rotate(48 1499.34 1149.01)" fill="#FFF500" fill-opacity="0.75" stroke="black"/>
<rect id="29" x="1466.34" y="1179.01" width="49" height="29" transform="rotate(48 1466.34 1179.01)" fill="#FFF500" fill-opacity="0.75" stroke="black"/>
<rect id="30" x="1427.34" y="1212.01" width="49" height="29" transform="rotate(48 1427.34 1212.01)" fill="#FFF500" fill-opacity="0.75" stroke="black"/>
<rect id="31" x="1375.34" y="1238.01" width="49" height="29" transform="rotate(48 1375.34 1238.01)" fill="#FFF500" fill-opacity="0.75" stroke="black"/>
<rect id="33" x="1287.34" y="1339.01" width="49" height="29" transform="rotate(48 1287.34 1339.01)" fill="#FFF500" fill-opacity="0.75" stroke="black"/>
<rect id="34" x="1240.35" y="1377.39" width="49" height="29" transform="rotate(10 1240.35 1377.39)" fill="#FFF500" fill-opacity="0.75" stroke="black"/>
<rect id="144" x="1094.61" y="1407.2" width="49" height="29" transform="rotate(48 1094.61 1407.2)" fill="#FFF500" fill-opacity="0.75" stroke="black"/>
<rect id="145" x="1076.61" y="1442.2" width="49" height="29" transform="rotate(48 1076.61 1442.2)" fill="#FFF500" fill-opacity="0.75" stroke="black"/>
<rect id="146" x="1055.61" y="1460.2" width="49" height="29" transform="rotate(48 1055.61 1460.2)" fill="#FFF500" fill-opacity="0.75" stroke="black"/>
<rect id="147" x="1028.61" y="1484.2" width="49" height="29" transform="rotate(48 1028.61 1484.2)" fill="#FFF500" fill-opacity="0.75" stroke="black"/>
<rect id="148" x="1001.61" y="1509.2" width="49" height="29" transform="rotate(48 1001.61 1509.2)" fill="#FFF500" fill-opacity="0.75" stroke="black"/>
<rect id="149" x="975.607" y="1532.2" width="49" height="29" transform="rotate(48 975.607 1532.2)" fill="#FFF500" fill-opacity="0.75" stroke="black"/>
<rect id="S49" x="1071.26" y="1689.71" width="49" height="29" transform="rotate(48 1071.26 1689.71)" fill="#FFF500" fill-opacity="0.75" stroke="black"/>
<rect id="W48" x="987.257" y="1669.71" width="49" height="29" transform="rotate(48 987.257 1669.71)" fill="#FFF500" fill-opacity="0.75" stroke="black"/>
<rect id="913" x="730.896" y="1650.27" width="49" height="29" transform="rotate(2 730.896 1650.27)" fill="#FFF500" fill-opacity="0.75" stroke="black"/>
<rect id="905A" x="790.896" y="1766.27" width="49" height="29" transform="rotate(2 790.896 1766.27)" fill="#FFF500" fill-opacity="0.75" stroke="black"/>
<rect id="905B" x="771.896" y="1765.27" width="49" height="29" transform="rotate(2 771.896 1765.27)" fill="#FFF500" fill-opacity="0.75" stroke="black"/>
<rect id="905C" x="767.896" y="1765.27" width="49" height="29" transform="rotate(2 767.896 1765.27)" fill="#FFF500" fill-opacity="0.75" stroke="black"/>
<rect id="903" x="848.64" y="1700.52" width="49" height="29" transform="rotate(48 848.64 1700.52)" fill="#FFF500" fill-opacity="0.75" stroke="black"/>
<rect id="903B" x="844.64" y="1712.52" width="49" height="29" transform="rotate(48 844.64 1712.52)" fill="#FFF500" fill-opacity="0.75" stroke="black"/>
<rect id="904" x="815.64" y="1724.52" width="49" height="29" transform="rotate(48 815.64 1724.52)" fill="#FFF500" fill-opacity="0.75" stroke="black"/>
<rect id="906" x="789.349" y="1814.05" width="49" height="29" transform="rotate(-42 789.349 1814.05)" fill="#FFF500" fill-opacity="0.75" stroke="black"/>
<rect id="952" x="978.484" y="2133.17" width="49" height="29" transform="rotate(-54 978.484 2133.17)" fill="#FFF500" fill-opacity="0.75" stroke="black"/>
<rect id="951A" x="958.484" y="2098.17" width="49" height="29" transform="rotate(-54 958.484 2098.17)" fill="#FFF500" fill-opacity="0.75" stroke="black"/>
<rect id="951" x="936.484" y="2088.17" width="49" height="29" transform="rotate(-54 936.484 2088.17)" fill="#FFF500" fill-opacity="0.75" stroke="black"/>
<rect id="951B" x="929.484" y="2070.17" width="49" height="29" transform="rotate(-54 929.484 2070.17)" fill="#FFF500" fill-opacity="0.75" stroke="black"/>
<rect id="961" x="868.241" y="2130.35" width="49" height="29" transform="rotate(46 868.241 2130.35)" fill="#FFF500" fill-opacity="0.75" stroke="black"/>
<rect id="962" x="819.241" y="2176.35" width="49" height="29" transform="rotate(46 819.241 2176.35)" fill="#FFF500" fill-opacity="0.75" stroke="black"/>
<rect id="963" x="767.241" y="2221.35" width="49" height="29" transform="rotate(46 767.241 2221.35)" fill="#FFF500" fill-opacity="0.75" stroke="black"/>
<rect id="804" x="493.568" y="2150.71" width="39" height="29" transform="rotate(46 493.568 2150.71)" fill="#FFF500" fill-opacity="0.75" stroke="black"/>
<rect id="807" x="501.583" y="2094.92" width="39" height="29" transform="rotate(-44 501.583 2094.92)" fill="#FFF500" fill-opacity="0.75" stroke="black"/>
<rect id="806" x="528.583" y="2121.92" width="39" height="29" transform="rotate(-44 528.583 2121.92)" fill="#FFF500" fill-opacity="0.75" stroke="black"/>
<rect id="805" x="556.583" y="2149.92" width="39" height="29" transform="rotate(-44 556.583 2149.92)" fill="#FFF500" fill-opacity="0.75" stroke="black"/>
<rect id="803" x="466.568" y="2178.71" width="39" height="29" transform="rotate(46 466.568 2178.71)" fill="#FFF500" fill-opacity="0.75" stroke="black"/>
<rect id="802" x="437.567" y="2203.71" width="39" height="29" transform="rotate(46 437.567 2203.71)" fill="#FFF500" fill-opacity="0.75" stroke="black"/>
<rect id="811" x="201.567" y="2135.71" width="39" height="29" transform="rotate(46 201.567 2135.71)" fill="#FFF500" fill-opacity="0.75" stroke="black"/>
<rect id="604" x="824.568" y="176.707" width="39" height="29" transform="rotate(46 824.568 176.707)" fill="#FFF500" fill-opacity="0.75" stroke="black"/>
<rect id="603" x="880.568" y="123.707" width="39" height="29" transform="rotate(46 880.568 123.707)" fill="#FFF500" fill-opacity="0.75" stroke="black"/>
<rect id="602" x="928.568" y="78.707" width="39" height="29" transform="rotate(46 928.568 78.707)" fill="#FFF500" fill-opacity="0.75" stroke="black"/>
<rect id="601" x="970.568" y="38.707" width="39" height="29" transform="rotate(46 970.568 38.707)" fill="#FFF500" fill-opacity="0.75" stroke="black"/>
<rect id="600" x="1013.57" y="0.706999" width="39" height="29" transform="rotate(46 1013.57 0.706999)" fill="#FFF500" fill-opacity="0.75" stroke="black"/>
<rect id="812" x="154.567" y="2177.71" width="39" height="29" transform="rotate(46 154.567 2177.71)" fill="#FFF500" fill-opacity="0.75" stroke="black"/>
<rect id="813" x="105.568" y="2226.71" width="39" height="29" transform="rotate(46 105.568 2226.71)" fill="#FFF500" fill-opacity="0.75" stroke="black"/>
<rect id="814A" x="55.5677" y="2277.71" width="39" height="29" transform="rotate(46 55.5677 2277.71)" fill="#FFF500" fill-opacity="0.75" stroke="black"/>
<rect id="814" x="31.5679" y="2281.71" width="39" height="29" transform="rotate(46 31.5679 2281.71)" fill="#FFF500" fill-opacity="0.75" stroke="black"/>
<rect id="814B" x="21.5679" y="2312.71" width="39" height="29" transform="rotate(46 21.5679 2312.71)" fill="#FFF500" fill-opacity="0.75" stroke="black"/>
<rect id="801" x="397.805" y="2237.35" width="39" height="29" transform="rotate(6 397.805 2237.35)" fill="#FFF500" fill-opacity="0.75" stroke="black"/>
<rect id="809" x="450.265" y="2051.87" width="39" height="29" transform="rotate(60 450.265 2051.87)" fill="#FFF500" fill-opacity="0.75" stroke="black"/>
<rect id="808" x="499.797" y="2007.68" width="39" height="29" transform="rotate(60 499.797 2007.68)" fill="#FFF500" fill-opacity="0.75" stroke="black"/>
<rect id="914" x="677.787" y="1702.26" width="49" height="29" transform="rotate(-40 677.787 1702.26)" fill="#FFF500" fill-opacity="0.75" stroke="black"/>
<rect id="S47" x="1120.26" y="1645.71" width="49" height="29" transform="rotate(48 1120.26 1645.71)" fill="#FFF500" fill-opacity="0.75" stroke="black"/>
<rect id="S45" x="1169.26" y="1602.71" width="49" height="29" transform="rotate(48 1169.26 1602.71)" fill="#FFF500" fill-opacity="0.75" stroke="black"/>
<rect id="S52" x="1313.98" y="1554.49" width="49" height="29" transform="rotate(-42 1313.98 1554.49)" fill="#FFF500" fill-opacity="0.75" stroke="black"/>
<rect id="S53" x="1345.98" y="1627.49" width="49" height="29" transform="rotate(-42 1345.98 1627.49)" fill="#FFF500" fill-opacity="0.75" stroke="black"/>
<rect id="S54" x="1389.98" y="1676.49" width="49" height="29" transform="rotate(-42 1389.98 1676.49)" fill="#FFF500" fill-opacity="0.75" stroke="black"/>
<rect id="S55" x="1435.98" y="1722.49" width="49" height="29" transform="rotate(-42 1435.98 1722.49)" fill="#FFF500" fill-opacity="0.75" stroke="black"/>
<rect id="171A" x="1341" y="1756.97" width="39" height="29" transform="rotate(48 1341 1756.97)" fill="#FFF500" fill-opacity="0.75" stroke="black"/>
<rect id="171" x="1341" y="1780.97" width="39" height="29" transform="rotate(48 1341 1780.97)" fill="#FFF500" fill-opacity="0.75" stroke="black"/>
<rect id="171B" x="1314" y="1781.97" width="39" height="29" transform="rotate(48 1314 1781.97)" fill="#FFF500" fill-opacity="0.75" stroke="black"/>
<rect id="172A" x="1285" y="1807.97" width="39" height="29" transform="rotate(48 1285 1807.97)" fill="#FFF500" fill-opacity="0.75" stroke="black"/>
<rect id="172" x="1285" y="1830.97" width="39" height="29" transform="rotate(48 1285 1830.97)" fill="#FFF500" fill-opacity="0.75" stroke="black"/>
<rect id="172B" x="1258" y="1831.97" width="39" height="29" transform="rotate(48 1258 1831.97)" fill="#FFF500" fill-opacity="0.75" stroke="black"/>
<rect id="32" x="1323.26" y="1356.59" width="49" height="29" transform="rotate(-107 1323.26 1356.59)" fill="#FFF500" fill-opacity="0.75" stroke="black"/>
<rect id="131" x="1237.62" y="1229.9" width="49" height="29" transform="rotate(-88 1237.62 1229.9)" fill="#FFF500" fill-opacity="0.75" stroke="black"/>
<rect id="132" x="1192.62" y="1270.9" width="49" height="29" transform="rotate(-88 1192.62 1270.9)" fill="#FFF500" fill-opacity="0.75" stroke="black"/>
<rect id="133" x="1148.62" y="1315.9" width="49" height="29" transform="rotate(-88 1148.62 1315.9)" fill="#FFF500" fill-opacity="0.75" stroke="black"/>
<rect id="5" x="1955.97" y="1704.61" width="39" height="29" fill="#FFF500" fill-opacity="0.75" stroke="black"/>
</g>
</svg>
